<?xml version="1.0" encoding="UTF-8"?>
<svg xmlns="http://www.w3.org/2000/svg" xmlns:xlink="http://www.w3.org/1999/xlink" width="375pt" height="374.999991pt" viewBox="0 0 375 374.999991" version="1.2">
<defs>
<clipPath id="clip1">
  <path d="M 37.5 37.5 L 337.5 37.5 L 337.5 337.5 L 37.5 337.5 Z M 37.5 37.5 "/>
</clipPath>
</defs>
<g id="surface1">
<g clip-path="url(#clip1)" clip-rule="nonzero">
<path style=" stroke:none;fill-rule:nonzero;fill:rgb(40.388489%,22.749329%,71.759033%);fill-opacity:1;" d="M 337.5 295.832031 C 337.5 318.851562 318.851562 337.5 295.832031 337.5 L 79.167969 337.5 C 56.160156 337.5 37.5 318.851562 37.5 295.832031 L 37.5 79.167969 C 37.5 56.148438 56.160156 37.5 79.167969 37.5 L 295.832031 37.5 C 318.851562 37.5 337.5 56.148438 337.5 79.167969 Z M 337.5 295.832031 "/>
</g>
<path style=" stroke:none;fill-rule:nonzero;fill:rgb(100%,100%,100%);fill-opacity:1;" d="M 262.75 200.832031 C 257.332031 193.332031 249.5 188.167969 239.417969 185.417969 C 239.417969 185.417969 247.917969 182.332031 255.582031 170.832031 C 260.167969 163.5 262.5 154.667969 262.5 144.332031 C 262.5 126.417969 256 112.667969 243 103.25 C 230 93.832031 215.332031 87.5 190.417969 87.5 L 112.5 87.5 L 112.5 287.5 L 199.417969 287.5 C 223 287.332031 240.75 282.25 252.832031 272.5 C 264.832031 262.582031 270.832031 247.917969 270.832031 228.332031 C 270.832031 217.5 268.167969 208.332031 262.75 200.832031 Z M 162.5 120.832031 C 162.5 120.832031 197.25 120.832031 197.917969 120.832031 C 210.582031 120.832031 220.832031 131.082031 220.832031 143.75 C 220.832031 156.417969 210.582031 166.667969 197.917969 166.667969 C 197.25 166.667969 162.5 166.667969 162.5 166.667969 Z M 204.167969 254.167969 L 162.5 254.167969 L 162.5 204.167969 L 204.167969 204.167969 C 218 204.167969 229.167969 215.332031 229.167969 229.167969 C 229.167969 243 218 254.167969 204.167969 254.167969 Z M 204.167969 254.167969 "/>
</g>
</svg>
