<?xml version="1.0" encoding="UTF-8"?>
<svg xmlns="http://www.w3.org/2000/svg" xmlns:xlink="http://www.w3.org/1999/xlink" width="375pt" height="374.999991pt" viewBox="0 0 375 374.999991" version="1.2">
<defs>
<clipPath id="clip1">
  <path d="M 53.25 37.5 L 321.75 37.5 L 321.75 337.5 L 53.25 337.5 Z M 53.25 37.5 "/>
</clipPath>
</defs>
<g id="surface1">
<g clip-path="url(#clip1)" clip-rule="nonzero">
<path style=" stroke:none;fill-rule:nonzero;fill:rgb(0.779724%,46.669006%,74.119568%);fill-opacity:1;" d="M 321.710938 37.5 L 53.289062 37.5 L 76.972656 305.921875 L 187.5 337.5 L 298.027344 305.921875 Z M 321.710938 37.5 "/>
</g>
<path style=" stroke:none;fill-rule:nonzero;fill:rgb(1.179504%,60.778809%,89.7995%);fill-opacity:1;" d="M 187.5 61.183594 L 187.5 313.027344 L 275.921875 287.761719 L 295.65625 61.183594 Z M 187.5 61.183594 "/>
<path style=" stroke:none;fill-rule:nonzero;fill:rgb(100%,100%,100%);fill-opacity:1;" d="M 259.34375 100.65625 L 187.5 100.65625 L 187.5 132.238281 L 226.183594 132.238281 L 223.816406 163.816406 L 187.5 163.816406 L 187.5 195.394531 L 222.238281 195.394531 L 219.867188 230.921875 L 187.5 241.972656 L 187.5 275.132812 L 249.867188 254.605469 L 255.394531 163.816406 Z M 259.34375 100.65625 "/>
<path style=" stroke:none;fill-rule:nonzero;fill:rgb(93.328857%,93.328857%,93.328857%);fill-opacity:1;" d="M 187.5 100.65625 L 187.5 132.238281 L 117.238281 132.238281 L 114.867188 100.65625 Z M 151.183594 163.816406 L 152.761719 195.394531 L 187.5 195.394531 L 187.5 163.816406 Z M 154.34375 211.183594 L 122.761719 211.183594 L 125.132812 254.605469 L 187.5 275.132812 L 187.5 241.972656 L 155.132812 230.921875 Z M 154.34375 211.183594 "/>
</g>
</svg>
