<?xml version="1.0" encoding="UTF-8"?>
<svg xmlns="http://www.w3.org/2000/svg" xmlns:xlink="http://www.w3.org/1999/xlink" width="375pt" height="374.999991pt" viewBox="0 0 375 374.999991" version="1.2">
<defs>
<clipPath id="clip1">
  <path d="M 56.046875 38 L 319.296875 38 L 319.296875 337 L 56.046875 337 Z M 56.046875 38 "/>
</clipPath>
</defs>
<g id="surface1">
<g clip-path="url(#clip1)" clip-rule="nonzero">
<path style=" stroke:none;fill-rule:nonzero;fill:rgb(89.408875%,30.198669%,14.898682%);fill-opacity:1;" d="M 79.976562 306.847656 L 55.96875 38.347656 L 319.722656 38.347656 L 295.699219 306.8125 L 187.679688 336.664062 Z M 79.976562 306.847656 "/>
</g>
<path style=" stroke:none;fill-rule:nonzero;fill:rgb(94.509888%,39.608765%,16.079712%);fill-opacity:1;" d="M 275.125 289.714844 L 295.660156 60.300781 L 187.847656 60.300781 L 187.847656 313.851562 Z M 275.125 289.714844 "/>
<path style=" stroke:none;fill-rule:nonzero;fill:rgb(92.158508%,92.158508%,92.158508%);fill-opacity:1;" d="M 187.734375 93.230469 L 105.046875 93.230469 L 113.953125 192.8125 L 187.847656 192.8125 L 187.847656 159.886719 L 144.15625 159.886719 L 141.136719 126.167969 L 187.847656 126.167969 L 187.847656 93.230469 Z M 187.847656 245.300781 L 187.707031 245.335938 L 150.933594 235.4375 L 148.597656 209.175781 L 115.429688 209.175781 L 120.058594 260.878906 L 187.695312 279.523438 L 187.847656 279.476562 Z M 187.847656 245.300781 "/>
<path style=" stroke:none;fill-rule:nonzero;fill:rgb(100%,100%,100%);fill-opacity:1;" d="M 187.734375 192.8125 L 228.394531 192.8125 L 224.65625 235.511719 L 187.828125 245.421875 L 187.828125 279.683594 L 255.523438 260.972656 L 264.589844 159.867188 L 187.847656 159.867188 Z M 269.65625 102.066406 L 270.441406 93.230469 L 187.714844 93.230469 L 187.714844 126.15625 L 267.46875 126.15625 L 268.125 118.753906 Z M 269.65625 102.066406 "/>
</g>
</svg>
