<?xml version="1.0" encoding="UTF-8"?>
<svg xmlns="http://www.w3.org/2000/svg" xmlns:xlink="http://www.w3.org/1999/xlink" width="375pt" height="374.999991pt" viewBox="0 0 375 374.999991" version="1.2">
<defs>
<clipPath id="clip1">
  <path d="M 124 229 L 213 229 L 213 271.742188 L 124 271.742188 Z M 124 229 "/>
</clipPath>
<clipPath id="clip2">
  <path d="M 37.5 103.074219 L 251.230469 103.074219 L 251.230469 214.804688 L 37.5 214.804688 Z M 37.5 103.074219 "/>
</clipPath>
<clipPath id="clip3">
  <path d="M 251.230469 158.9375 C 251.230469 159.851562 251.191406 160.761719 251.105469 161.671875 C 251.019531 162.582031 250.890625 163.492188 250.71875 164.398438 C 250.546875 165.308594 250.332031 166.210938 250.074219 167.113281 C 249.820312 168.015625 249.519531 168.914062 249.179688 169.808594 C 248.835938 170.703125 248.453125 171.589844 248.03125 172.476562 C 247.605469 173.359375 247.136719 174.238281 246.628906 175.109375 C 246.121094 175.984375 245.574219 176.847656 244.984375 177.707031 C 244.394531 178.566406 243.765625 179.414062 243.097656 180.257812 C 242.429688 181.097656 241.71875 181.933594 240.972656 182.757812 C 240.222656 183.582031 239.4375 184.394531 238.613281 185.199219 C 237.789062 186.003906 236.925781 186.796875 236.027344 187.578125 C 235.128906 188.359375 234.195312 189.128906 233.222656 189.886719 C 232.25 190.644531 231.242188 191.390625 230.203125 192.125 C 229.160156 192.855469 228.085938 193.574219 226.976562 194.277344 C 225.867188 194.984375 224.722656 195.675781 223.546875 196.347656 C 222.375 197.023438 221.167969 197.683594 219.933594 198.328125 C 218.695312 198.972656 217.429688 199.601562 216.132812 200.214844 C 214.835938 200.828125 213.511719 201.421875 212.160156 202 C 210.808594 202.578125 209.429688 203.140625 208.027344 203.683594 C 206.621094 204.226562 205.191406 204.75 203.738281 205.257812 C 202.285156 205.765625 200.804688 206.25 199.304688 206.71875 C 197.804688 207.1875 196.285156 207.636719 194.742188 208.066406 C 193.199219 208.496094 191.636719 208.90625 190.058594 209.296875 C 188.476562 209.6875 186.878906 210.054688 185.261719 210.40625 C 183.644531 210.753906 182.015625 211.082031 180.367188 211.390625 C 178.722656 211.695312 177.0625 211.980469 175.386719 212.246094 C 173.714844 212.511719 172.027344 212.753906 170.332031 212.976562 C 168.636719 213.199219 166.929688 213.398438 165.214844 213.574219 C 163.5 213.753906 161.777344 213.910156 160.046875 214.042969 C 158.316406 214.175781 156.582031 214.289062 154.839844 214.378906 C 153.101562 214.46875 151.355469 214.535156 149.609375 214.578125 C 147.863281 214.625 146.113281 214.644531 144.367188 214.644531 C 142.617188 214.644531 140.871094 214.625 139.121094 214.578125 C 137.375 214.535156 135.632812 214.46875 133.890625 214.378906 C 132.152344 214.289062 130.414062 214.175781 128.6875 214.042969 C 126.957031 213.910156 125.234375 213.753906 123.519531 213.574219 C 121.800781 213.398438 120.097656 213.199219 118.398438 212.976562 C 116.703125 212.753906 115.019531 212.511719 113.34375 212.246094 C 111.671875 211.984375 110.011719 211.695312 108.363281 211.390625 C 106.71875 211.082031 105.085938 210.753906 103.46875 210.40625 C 101.855469 210.054688 100.257812 209.6875 98.675781 209.296875 C 97.09375 208.90625 95.53125 208.496094 93.988281 208.066406 C 92.449219 207.636719 90.925781 207.1875 89.425781 206.71875 C 87.925781 206.25 86.449219 205.765625 84.996094 205.257812 C 83.539062 204.75 82.109375 204.226562 80.707031 203.683594 C 79.300781 203.140625 77.921875 202.578125 76.570312 202 C 75.21875 201.421875 73.894531 200.828125 72.597656 200.214844 C 71.304688 199.601562 70.035156 198.972656 68.800781 198.328125 C 67.5625 197.683594 66.359375 197.023438 65.183594 196.347656 C 64.007812 195.675781 62.867188 194.984375 61.757812 194.277344 C 60.648438 193.574219 59.574219 192.855469 58.53125 192.125 C 57.488281 191.390625 56.480469 190.644531 55.511719 189.886719 C 54.539062 189.128906 53.601562 188.359375 52.703125 187.578125 C 51.804688 186.796875 50.941406 186.003906 50.117188 185.199219 C 49.292969 184.394531 48.507812 183.582031 47.761719 182.757812 C 47.011719 181.933594 46.304688 181.097656 45.632812 180.257812 C 44.964844 179.414062 44.335938 178.566406 43.746094 177.707031 C 43.15625 176.847656 42.609375 175.984375 42.101562 175.109375 C 41.59375 174.238281 41.128906 173.359375 40.703125 172.476562 C 40.277344 171.589844 39.894531 170.703125 39.554688 169.808594 C 39.210938 168.914062 38.914062 168.015625 38.65625 167.113281 C 38.398438 166.210938 38.1875 165.308594 38.015625 164.398438 C 37.84375 163.492188 37.714844 162.582031 37.628906 161.671875 C 37.542969 160.761719 37.5 159.851562 37.5 158.9375 C 37.5 158.027344 37.542969 157.117188 37.628906 156.207031 C 37.714844 155.296875 37.84375 154.386719 38.015625 153.480469 C 38.1875 152.570312 38.398438 151.667969 38.65625 150.765625 C 38.914062 149.863281 39.210938 148.964844 39.554688 148.070312 C 39.894531 147.175781 40.277344 146.289062 40.703125 145.402344 C 41.128906 144.519531 41.59375 143.640625 42.101562 142.769531 C 42.609375 141.894531 43.15625 141.03125 43.746094 140.171875 C 44.335938 139.3125 44.964844 138.464844 45.632812 137.621094 C 46.304688 136.777344 47.011719 135.945312 47.761719 135.121094 C 48.507812 134.296875 49.292969 133.484375 50.117188 132.679688 C 50.941406 131.875 51.804688 131.082031 52.703125 130.300781 C 53.601562 129.519531 54.539062 128.75 55.511719 127.992188 C 56.480469 127.234375 57.488281 126.488281 58.53125 125.753906 C 59.574219 125.023438 60.648438 124.304688 61.757812 123.597656 C 62.867188 122.894531 64.007812 122.203125 65.183594 121.527344 C 66.359375 120.855469 67.5625 120.195312 68.800781 119.550781 C 70.035156 118.90625 71.304688 118.277344 72.597656 117.664062 C 73.894531 117.050781 75.21875 116.457031 76.570312 115.878906 C 77.921875 115.300781 79.300781 114.738281 80.707031 114.195312 C 82.109375 113.652344 83.539062 113.128906 84.996094 112.621094 C 86.449219 112.113281 87.925781 111.628906 89.425781 111.160156 C 90.925781 110.691406 92.449219 110.242188 93.988281 109.8125 C 95.53125 109.382812 97.09375 108.972656 98.675781 108.582031 C 100.257812 108.191406 101.855469 107.820312 103.46875 107.472656 C 105.085938 107.125 106.71875 106.796875 108.363281 106.488281 C 110.011719 106.183594 111.671875 105.894531 113.34375 105.632812 C 115.019531 105.367188 116.703125 105.125 118.398438 104.902344 C 120.097656 104.679688 121.800781 104.480469 123.519531 104.304688 C 125.234375 104.125 126.957031 103.96875 128.6875 103.835938 C 130.414062 103.703125 132.152344 103.589844 133.890625 103.5 C 135.632812 103.410156 137.375 103.34375 139.121094 103.300781 C 140.871094 103.253906 142.617188 103.234375 144.367188 103.234375 C 146.113281 103.234375 147.863281 103.253906 149.609375 103.300781 C 151.355469 103.34375 153.101562 103.410156 154.839844 103.5 C 156.582031 103.589844 158.316406 103.703125 160.046875 103.835938 C 161.777344 103.96875 163.5 104.125 165.214844 104.304688 C 166.929688 104.480469 168.636719 104.679688 170.332031 104.902344 C 172.027344 105.125 173.714844 105.367188 175.386719 105.632812 C 177.0625 105.894531 178.722656 106.183594 180.367188 106.488281 C 182.015625 106.796875 183.644531 107.125 185.261719 107.472656 C 186.878906 107.820312 188.476562 108.191406 190.058594 108.582031 C 191.636719 108.972656 193.199219 109.382812 194.742188 109.8125 C 196.285156 110.242188 197.804688 110.691406 199.304688 111.160156 C 200.804688 111.628906 202.285156 112.113281 203.738281 112.621094 C 205.191406 113.128906 206.621094 113.652344 208.027344 114.195312 C 209.429688 114.738281 210.808594 115.300781 212.160156 115.878906 C 213.511719 116.457031 214.835938 117.050781 216.132812 117.664062 C 217.429688 118.277344 218.695312 118.90625 219.933594 119.550781 C 221.167969 120.195312 222.375 120.855469 223.546875 121.527344 C 224.722656 122.203125 225.867188 122.894531 226.976562 123.597656 C 228.085938 124.304688 229.160156 125.023438 230.203125 125.753906 C 231.242188 126.488281 232.25 127.234375 233.222656 127.992188 C 234.195312 128.75 235.128906 129.519531 236.027344 130.300781 C 236.925781 131.082031 237.789062 131.875 238.613281 132.679688 C 239.4375 133.484375 240.222656 134.296875 240.972656 135.121094 C 241.71875 135.945312 242.429688 136.777344 243.097656 137.621094 C 243.765625 138.464844 244.394531 139.3125 244.984375 140.171875 C 245.574219 141.03125 246.125 141.894531 246.628906 142.769531 C 247.136719 143.640625 247.605469 144.519531 248.03125 145.402344 C 248.453125 146.289062 248.835938 147.175781 249.179688 148.070312 C 249.519531 148.964844 249.820312 149.863281 250.074219 150.765625 C 250.332031 151.667969 250.546875 152.570312 250.71875 153.480469 C 250.890625 154.386719 251.019531 155.296875 251.105469 156.207031 C 251.191406 157.117188 251.230469 158.027344 251.230469 158.9375 Z M 251.230469 158.9375 "/>
</clipPath>
<radialGradient id="radial0" gradientUnits="userSpaceOnUse" cx="0.322005" cy="-48.423971" fx="0.322005" fy="-48.423971" r="139.740937" gradientTransform="matrix(1.004306,0,0,0.995694,101.33919,171.039186)">
<stop offset="0" style="stop-color:rgb(99.725342%,99.772644%,99.839783%);stop-opacity:1;"/>
<stop offset="0.00390625" style="stop-color:rgb(99.176025%,99.319458%,99.520874%);stop-opacity:1;"/>
<stop offset="0.0078125" style="stop-color:rgb(98.628235%,98.866272%,99.201965%);stop-opacity:1;"/>
<stop offset="0.0117188" style="stop-color:rgb(98.078918%,98.413086%,98.883057%);stop-opacity:1;"/>
<stop offset="0.015625" style="stop-color:rgb(97.531128%,97.9599%,98.564148%);stop-opacity:1;"/>
<stop offset="0.0195312" style="stop-color:rgb(96.981812%,97.506714%,98.245239%);stop-opacity:1;"/>
<stop offset="0.0234375" style="stop-color:rgb(96.434021%,97.053528%,97.926331%);stop-opacity:1;"/>
<stop offset="0.0273438" style="stop-color:rgb(95.88623%,96.600342%,97.607422%);stop-opacity:1;"/>
<stop offset="0.03125" style="stop-color:rgb(95.336914%,96.147156%,97.288513%);stop-opacity:1;"/>
<stop offset="0.0351562" style="stop-color:rgb(94.789124%,95.69397%,96.97113%);stop-opacity:1;"/>
<stop offset="0.0390625" style="stop-color:rgb(94.239807%,95.240784%,96.652222%);stop-opacity:1;"/>
<stop offset="0.0429688" style="stop-color:rgb(93.692017%,94.787598%,96.333313%);stop-opacity:1;"/>
<stop offset="0.046875" style="stop-color:rgb(93.1427%,94.334412%,96.014404%);stop-opacity:1;"/>
<stop offset="0.0507812" style="stop-color:rgb(92.59491%,93.881226%,95.695496%);stop-opacity:1;"/>
<stop offset="0.0546875" style="stop-color:rgb(92.047119%,93.42804%,95.376587%);stop-opacity:1;"/>
<stop offset="0.0585938" style="stop-color:rgb(91.497803%,92.974854%,95.057678%);stop-opacity:1;"/>
<stop offset="0.0625" style="stop-color:rgb(90.950012%,92.521667%,94.73877%);stop-opacity:1;"/>
<stop offset="0.0664062" style="stop-color:rgb(90.400696%,92.068481%,94.419861%);stop-opacity:1;"/>
<stop offset="0.0703125" style="stop-color:rgb(89.852905%,91.615295%,94.100952%);stop-opacity:1;"/>
<stop offset="0.0742188" style="stop-color:rgb(89.303589%,91.162109%,93.783569%);stop-opacity:1;"/>
<stop offset="0.078125" style="stop-color:rgb(88.755798%,90.708923%,93.464661%);stop-opacity:1;"/>
<stop offset="0.0820312" style="stop-color:rgb(88.208008%,90.255737%,93.145752%);stop-opacity:1;"/>
<stop offset="0.0859375" style="stop-color:rgb(87.658691%,89.802551%,92.826843%);stop-opacity:1;"/>
<stop offset="0.0898438" style="stop-color:rgb(87.110901%,89.349365%,92.507935%);stop-opacity:1;"/>
<stop offset="0.09375" style="stop-color:rgb(86.561584%,88.897705%,92.189026%);stop-opacity:1;"/>
<stop offset="0.0976562" style="stop-color:rgb(86.013794%,88.444519%,91.870117%);stop-opacity:1;"/>
<stop offset="0.101562" style="stop-color:rgb(85.464478%,87.991333%,91.551208%);stop-opacity:1;"/>
<stop offset="0.105469" style="stop-color:rgb(84.916687%,87.538147%,91.2323%);stop-opacity:1;"/>
<stop offset="0.109375" style="stop-color:rgb(84.368896%,87.084961%,90.914917%);stop-opacity:1;"/>
<stop offset="0.113281" style="stop-color:rgb(83.81958%,86.631775%,90.596008%);stop-opacity:1;"/>
<stop offset="0.117188" style="stop-color:rgb(83.27179%,86.178589%,90.2771%);stop-opacity:1;"/>
<stop offset="0.121094" style="stop-color:rgb(82.722473%,85.725403%,89.958191%);stop-opacity:1;"/>
<stop offset="0.125" style="stop-color:rgb(82.174683%,85.272217%,89.639282%);stop-opacity:1;"/>
<stop offset="0.128906" style="stop-color:rgb(81.626892%,84.819031%,89.320374%);stop-opacity:1;"/>
<stop offset="0.132812" style="stop-color:rgb(81.077576%,84.365845%,89.001465%);stop-opacity:1;"/>
<stop offset="0.136719" style="stop-color:rgb(80.529785%,83.912659%,88.682556%);stop-opacity:1;"/>
<stop offset="0.140625" style="stop-color:rgb(79.980469%,83.459473%,88.363647%);stop-opacity:1;"/>
<stop offset="0.144531" style="stop-color:rgb(79.432678%,83.006287%,88.044739%);stop-opacity:1;"/>
<stop offset="0.148438" style="stop-color:rgb(78.883362%,82.553101%,87.727356%);stop-opacity:1;"/>
<stop offset="0.152344" style="stop-color:rgb(78.335571%,82.099915%,87.408447%);stop-opacity:1;"/>
<stop offset="0.15625" style="stop-color:rgb(77.787781%,81.646729%,87.089539%);stop-opacity:1;"/>
<stop offset="0.160156" style="stop-color:rgb(77.238464%,81.193542%,86.77063%);stop-opacity:1;"/>
<stop offset="0.164062" style="stop-color:rgb(76.690674%,80.740356%,86.451721%);stop-opacity:1;"/>
<stop offset="0.167969" style="stop-color:rgb(76.141357%,80.28717%,86.132812%);stop-opacity:1;"/>
<stop offset="0.171875" style="stop-color:rgb(75.593567%,79.833984%,85.813904%);stop-opacity:1;"/>
<stop offset="0.175781" style="stop-color:rgb(75.04425%,79.380798%,85.494995%);stop-opacity:1;"/>
<stop offset="0.179688" style="stop-color:rgb(74.49646%,78.927612%,85.176086%);stop-opacity:1;"/>
<stop offset="0.183594" style="stop-color:rgb(73.948669%,78.474426%,84.857178%);stop-opacity:1;"/>
<stop offset="0.1875" style="stop-color:rgb(73.399353%,78.02124%,84.539795%);stop-opacity:1;"/>
<stop offset="0.191406" style="stop-color:rgb(72.851562%,77.56958%,84.220886%);stop-opacity:1;"/>
<stop offset="0.195312" style="stop-color:rgb(72.302246%,77.116394%,83.901978%);stop-opacity:1;"/>
<stop offset="0.199219" style="stop-color:rgb(71.754456%,76.663208%,83.583069%);stop-opacity:1;"/>
<stop offset="0.203125" style="stop-color:rgb(71.205139%,76.210022%,83.26416%);stop-opacity:1;"/>
<stop offset="0.207031" style="stop-color:rgb(70.657349%,75.756836%,82.945251%);stop-opacity:1;"/>
<stop offset="0.210938" style="stop-color:rgb(70.109558%,75.30365%,82.626343%);stop-opacity:1;"/>
<stop offset="0.214844" style="stop-color:rgb(69.560242%,74.850464%,82.307434%);stop-opacity:1;"/>
<stop offset="0.21875" style="stop-color:rgb(69.012451%,74.397278%,81.988525%);stop-opacity:1;"/>
<stop offset="0.222656" style="stop-color:rgb(68.463135%,73.944092%,81.671143%);stop-opacity:1;"/>
<stop offset="0.226562" style="stop-color:rgb(67.915344%,73.490906%,81.352234%);stop-opacity:1;"/>
<stop offset="0.230469" style="stop-color:rgb(67.366028%,73.03772%,81.033325%);stop-opacity:1;"/>
<stop offset="0.234375" style="stop-color:rgb(66.818237%,72.584534%,80.714417%);stop-opacity:1;"/>
<stop offset="0.238281" style="stop-color:rgb(66.270447%,72.131348%,80.395508%);stop-opacity:1;"/>
<stop offset="0.242188" style="stop-color:rgb(65.72113%,71.678162%,80.076599%);stop-opacity:1;"/>
<stop offset="0.246094" style="stop-color:rgb(65.17334%,71.224976%,79.75769%);stop-opacity:1;"/>
<stop offset="0.25" style="stop-color:rgb(64.624023%,70.77179%,79.438782%);stop-opacity:1;"/>
<stop offset="0.253906" style="stop-color:rgb(64.076233%,70.318604%,79.119873%);stop-opacity:1;"/>
<stop offset="0.257812" style="stop-color:rgb(63.528442%,69.865417%,78.800964%);stop-opacity:1;"/>
<stop offset="0.261719" style="stop-color:rgb(62.979126%,69.412231%,78.483582%);stop-opacity:1;"/>
<stop offset="0.265625" style="stop-color:rgb(62.431335%,68.959045%,78.164673%);stop-opacity:1;"/>
<stop offset="0.269531" style="stop-color:rgb(61.882019%,68.505859%,77.845764%);stop-opacity:1;"/>
<stop offset="0.273438" style="stop-color:rgb(61.334229%,68.052673%,77.526855%);stop-opacity:1;"/>
<stop offset="0.277344" style="stop-color:rgb(60.784912%,67.599487%,77.207947%);stop-opacity:1;"/>
<stop offset="0.28125" style="stop-color:rgb(60.237122%,67.146301%,76.889038%);stop-opacity:1;"/>
<stop offset="0.285156" style="stop-color:rgb(59.689331%,66.693115%,76.570129%);stop-opacity:1;"/>
<stop offset="0.289062" style="stop-color:rgb(59.140015%,66.241455%,76.251221%);stop-opacity:1;"/>
<stop offset="0.292969" style="stop-color:rgb(58.592224%,65.788269%,75.932312%);stop-opacity:1;"/>
<stop offset="0.296875" style="stop-color:rgb(58.042908%,65.335083%,75.614929%);stop-opacity:1;"/>
<stop offset="0.300781" style="stop-color:rgb(57.495117%,64.881897%,75.296021%);stop-opacity:1;"/>
<stop offset="0.304688" style="stop-color:rgb(56.945801%,64.428711%,74.977112%);stop-opacity:1;"/>
<stop offset="0.308594" style="stop-color:rgb(56.39801%,63.975525%,74.658203%);stop-opacity:1;"/>
<stop offset="0.3125" style="stop-color:rgb(55.85022%,63.522339%,74.339294%);stop-opacity:1;"/>
<stop offset="0.316406" style="stop-color:rgb(55.300903%,63.069153%,74.020386%);stop-opacity:1;"/>
<stop offset="0.320312" style="stop-color:rgb(54.753113%,62.615967%,73.701477%);stop-opacity:1;"/>
<stop offset="0.324219" style="stop-color:rgb(54.203796%,62.162781%,73.382568%);stop-opacity:1;"/>
<stop offset="0.328125" style="stop-color:rgb(53.656006%,61.709595%,73.06366%);stop-opacity:1;"/>
<stop offset="0.332031" style="stop-color:rgb(53.106689%,61.256409%,72.744751%);stop-opacity:1;"/>
<stop offset="0.335938" style="stop-color:rgb(52.558899%,60.803223%,72.427368%);stop-opacity:1;"/>
<stop offset="0.339844" style="stop-color:rgb(52.011108%,60.350037%,72.108459%);stop-opacity:1;"/>
<stop offset="0.34375" style="stop-color:rgb(51.461792%,59.896851%,71.789551%);stop-opacity:1;"/>
<stop offset="0.347656" style="stop-color:rgb(50.914001%,59.443665%,71.470642%);stop-opacity:1;"/>
<stop offset="0.351562" style="stop-color:rgb(50.364685%,58.990479%,71.151733%);stop-opacity:1;"/>
<stop offset="0.355469" style="stop-color:rgb(49.816895%,58.537292%,70.832825%);stop-opacity:1;"/>
<stop offset="0.359375" style="stop-color:rgb(49.267578%,58.084106%,70.513916%);stop-opacity:1;"/>
<stop offset="0.363281" style="stop-color:rgb(48.719788%,57.63092%,70.195007%);stop-opacity:1;"/>
<stop offset="0.367188" style="stop-color:rgb(48.171997%,57.177734%,69.876099%);stop-opacity:1;"/>
<stop offset="0.371094" style="stop-color:rgb(47.622681%,56.724548%,69.55719%);stop-opacity:1;"/>
<stop offset="0.375" style="stop-color:rgb(47.07489%,56.271362%,69.239807%);stop-opacity:1;"/>
<stop offset="0.378906" style="stop-color:rgb(46.525574%,55.818176%,68.920898%);stop-opacity:1;"/>
<stop offset="0.382812" style="stop-color:rgb(45.977783%,55.36499%,68.60199%);stop-opacity:1;"/>
<stop offset="0.386719" style="stop-color:rgb(45.429993%,54.91333%,68.283081%);stop-opacity:1;"/>
<stop offset="0.390625" style="stop-color:rgb(44.880676%,54.460144%,67.964172%);stop-opacity:1;"/>
<stop offset="0.394531" style="stop-color:rgb(44.332886%,54.006958%,67.645264%);stop-opacity:1;"/>
<stop offset="0.398438" style="stop-color:rgb(43.783569%,53.553772%,67.326355%);stop-opacity:1;"/>
<stop offset="0.402344" style="stop-color:rgb(43.235779%,53.100586%,67.007446%);stop-opacity:1;"/>
<stop offset="0.40625" style="stop-color:rgb(42.686462%,52.6474%,66.688538%);stop-opacity:1;"/>
<stop offset="0.410156" style="stop-color:rgb(42.138672%,52.194214%,66.371155%);stop-opacity:1;"/>
<stop offset="0.414062" style="stop-color:rgb(41.590881%,51.741028%,66.052246%);stop-opacity:1;"/>
<stop offset="0.417969" style="stop-color:rgb(41.041565%,51.287842%,65.733337%);stop-opacity:1;"/>
<stop offset="0.421875" style="stop-color:rgb(40.493774%,50.834656%,65.414429%);stop-opacity:1;"/>
<stop offset="0.425781" style="stop-color:rgb(39.944458%,50.38147%,65.09552%);stop-opacity:1;"/>
<stop offset="0.429688" style="stop-color:rgb(39.396667%,49.928284%,64.776611%);stop-opacity:1;"/>
<stop offset="0.433594" style="stop-color:rgb(38.847351%,49.475098%,64.457703%);stop-opacity:1;"/>
<stop offset="0.4375" style="stop-color:rgb(38.299561%,49.021912%,64.138794%);stop-opacity:1;"/>
<stop offset="0.441406" style="stop-color:rgb(37.75177%,48.568726%,63.819885%);stop-opacity:1;"/>
<stop offset="0.445312" style="stop-color:rgb(37.202454%,48.11554%,63.500977%);stop-opacity:1;"/>
<stop offset="0.449219" style="stop-color:rgb(36.654663%,47.662354%,63.183594%);stop-opacity:1;"/>
<stop offset="0.453125" style="stop-color:rgb(36.105347%,47.209167%,62.864685%);stop-opacity:1;"/>
<stop offset="0.457031" style="stop-color:rgb(35.557556%,46.755981%,62.545776%);stop-opacity:1;"/>
<stop offset="0.460938" style="stop-color:rgb(35.00824%,46.302795%,62.226868%);stop-opacity:1;"/>
<stop offset="0.464844" style="stop-color:rgb(34.460449%,45.849609%,61.907959%);stop-opacity:1;"/>
<stop offset="0.46875" style="stop-color:rgb(33.912659%,45.396423%,61.58905%);stop-opacity:1;"/>
<stop offset="0.472656" style="stop-color:rgb(33.363342%,44.943237%,61.270142%);stop-opacity:1;"/>
<stop offset="0.476562" style="stop-color:rgb(32.815552%,44.490051%,60.951233%);stop-opacity:1;"/>
<stop offset="0.480469" style="stop-color:rgb(32.266235%,44.036865%,60.632324%);stop-opacity:1;"/>
<stop offset="0.484375" style="stop-color:rgb(31.718445%,43.585205%,60.314941%);stop-opacity:1;"/>
<stop offset="0.488281" style="stop-color:rgb(31.170654%,43.132019%,59.996033%);stop-opacity:1;"/>
<stop offset="0.492188" style="stop-color:rgb(30.621338%,42.678833%,59.677124%);stop-opacity:1;"/>
<stop offset="0.496094" style="stop-color:rgb(30.073547%,42.225647%,59.358215%);stop-opacity:1;"/>
<stop offset="0.5" style="stop-color:rgb(29.736328%,41.882324%,59.016418%);stop-opacity:1;"/>
<stop offset="0.503906" style="stop-color:rgb(29.60968%,41.648865%,58.651733%);stop-opacity:1;"/>
<stop offset="0.507812" style="stop-color:rgb(29.484558%,41.416931%,58.287048%);stop-opacity:1;"/>
<stop offset="0.511719" style="stop-color:rgb(29.359436%,41.183472%,57.922363%);stop-opacity:1;"/>
<stop offset="0.515625" style="stop-color:rgb(29.232788%,40.951538%,57.556152%);stop-opacity:1;"/>
<stop offset="0.519531" style="stop-color:rgb(29.107666%,40.718079%,57.191467%);stop-opacity:1;"/>
<stop offset="0.523438" style="stop-color:rgb(28.981018%,40.486145%,56.826782%);stop-opacity:1;"/>
<stop offset="0.527344" style="stop-color:rgb(28.855896%,40.252686%,56.462097%);stop-opacity:1;"/>
<stop offset="0.53125" style="stop-color:rgb(28.729248%,40.019226%,56.097412%);stop-opacity:1;"/>
<stop offset="0.535156" style="stop-color:rgb(28.604126%,39.787292%,55.732727%);stop-opacity:1;"/>
<stop offset="0.539062" style="stop-color:rgb(28.477478%,39.553833%,55.368042%);stop-opacity:1;"/>
<stop offset="0.542969" style="stop-color:rgb(28.352356%,39.321899%,55.003357%);stop-opacity:1;"/>
<stop offset="0.546875" style="stop-color:rgb(28.227234%,39.08844%,54.638672%);stop-opacity:1;"/>
<stop offset="0.550781" style="stop-color:rgb(28.100586%,38.856506%,54.272461%);stop-opacity:1;"/>
<stop offset="0.554688" style="stop-color:rgb(27.975464%,38.623047%,53.907776%);stop-opacity:1;"/>
<stop offset="0.558594" style="stop-color:rgb(27.848816%,38.389587%,53.543091%);stop-opacity:1;"/>
<stop offset="0.5625" style="stop-color:rgb(27.723694%,38.157654%,53.178406%);stop-opacity:1;"/>
<stop offset="0.566406" style="stop-color:rgb(27.597046%,37.924194%,52.813721%);stop-opacity:1;"/>
<stop offset="0.570312" style="stop-color:rgb(27.471924%,37.692261%,52.449036%);stop-opacity:1;"/>
<stop offset="0.574219" style="stop-color:rgb(27.346802%,37.458801%,52.084351%);stop-opacity:1;"/>
<stop offset="0.578125" style="stop-color:rgb(27.220154%,37.226868%,51.719666%);stop-opacity:1;"/>
<stop offset="0.582031" style="stop-color:rgb(27.095032%,36.993408%,51.35498%);stop-opacity:1;"/>
<stop offset="0.585938" style="stop-color:rgb(26.968384%,36.759949%,50.990295%);stop-opacity:1;"/>
<stop offset="0.589844" style="stop-color:rgb(26.843262%,36.528015%,50.624084%);stop-opacity:1;"/>
<stop offset="0.59375" style="stop-color:rgb(26.716614%,36.294556%,50.259399%);stop-opacity:1;"/>
<stop offset="0.597656" style="stop-color:rgb(26.591492%,36.062622%,49.894714%);stop-opacity:1;"/>
<stop offset="0.601562" style="stop-color:rgb(26.46637%,35.829163%,49.530029%);stop-opacity:1;"/>
<stop offset="0.605469" style="stop-color:rgb(26.339722%,35.595703%,49.165344%);stop-opacity:1;"/>
<stop offset="0.609375" style="stop-color:rgb(26.2146%,35.36377%,48.800659%);stop-opacity:1;"/>
<stop offset="0.613281" style="stop-color:rgb(26.087952%,35.13031%,48.435974%);stop-opacity:1;"/>
<stop offset="0.617188" style="stop-color:rgb(25.96283%,34.898376%,48.071289%);stop-opacity:1;"/>
<stop offset="0.621094" style="stop-color:rgb(25.836182%,34.664917%,47.706604%);stop-opacity:1;"/>
<stop offset="0.625" style="stop-color:rgb(25.71106%,34.432983%,47.340393%);stop-opacity:1;"/>
<stop offset="0.628906" style="stop-color:rgb(25.585938%,34.199524%,46.975708%);stop-opacity:1;"/>
<stop offset="0.632812" style="stop-color:rgb(25.45929%,33.966064%,46.611023%);stop-opacity:1;"/>
<stop offset="0.636719" style="stop-color:rgb(25.334167%,33.734131%,46.246338%);stop-opacity:1;"/>
<stop offset="0.640625" style="stop-color:rgb(25.20752%,33.500671%,45.881653%);stop-opacity:1;"/>
<stop offset="0.644531" style="stop-color:rgb(25.082397%,33.268738%,45.516968%);stop-opacity:1;"/>
<stop offset="0.648438" style="stop-color:rgb(24.95575%,33.035278%,45.152283%);stop-opacity:1;"/>
<stop offset="0.652344" style="stop-color:rgb(24.830627%,32.803345%,44.787598%);stop-opacity:1;"/>
<stop offset="0.65625" style="stop-color:rgb(24.705505%,32.569885%,44.422913%);stop-opacity:1;"/>
<stop offset="0.660156" style="stop-color:rgb(24.578857%,32.336426%,44.058228%);stop-opacity:1;"/>
<stop offset="0.664062" style="stop-color:rgb(24.453735%,32.104492%,43.692017%);stop-opacity:1;"/>
<stop offset="0.667969" style="stop-color:rgb(24.327087%,31.871033%,43.327332%);stop-opacity:1;"/>
<stop offset="0.671875" style="stop-color:rgb(24.201965%,31.639099%,42.962646%);stop-opacity:1;"/>
<stop offset="0.675781" style="stop-color:rgb(24.075317%,31.40564%,42.597961%);stop-opacity:1;"/>
<stop offset="0.679688" style="stop-color:rgb(23.950195%,31.173706%,42.233276%);stop-opacity:1;"/>
<stop offset="0.683594" style="stop-color:rgb(23.823547%,30.940247%,41.868591%);stop-opacity:1;"/>
<stop offset="0.6875" style="stop-color:rgb(23.698425%,30.706787%,41.503906%);stop-opacity:1;"/>
<stop offset="0.691406" style="stop-color:rgb(23.573303%,30.474854%,41.139221%);stop-opacity:1;"/>
<stop offset="0.695312" style="stop-color:rgb(23.446655%,30.241394%,40.774536%);stop-opacity:1;"/>
<stop offset="0.699219" style="stop-color:rgb(23.321533%,30.00946%,40.409851%);stop-opacity:1;"/>
<stop offset="0.703125" style="stop-color:rgb(23.194885%,29.776001%,40.04364%);stop-opacity:1;"/>
<stop offset="0.707031" style="stop-color:rgb(23.069763%,29.544067%,39.678955%);stop-opacity:1;"/>
<stop offset="0.710938" style="stop-color:rgb(22.943115%,29.310608%,39.31427%);stop-opacity:1;"/>
<stop offset="0.714844" style="stop-color:rgb(22.817993%,29.077148%,38.949585%);stop-opacity:1;"/>
<stop offset="0.71875" style="stop-color:rgb(22.692871%,28.845215%,38.5849%);stop-opacity:1;"/>
<stop offset="0.722656" style="stop-color:rgb(22.566223%,28.611755%,38.220215%);stop-opacity:1;"/>
<stop offset="0.726562" style="stop-color:rgb(22.441101%,28.379822%,37.85553%);stop-opacity:1;"/>
<stop offset="0.730469" style="stop-color:rgb(22.314453%,28.146362%,37.490845%);stop-opacity:1;"/>
<stop offset="0.734375" style="stop-color:rgb(22.189331%,27.912903%,37.12616%);stop-opacity:1;"/>
<stop offset="0.738281" style="stop-color:rgb(22.062683%,27.680969%,36.759949%);stop-opacity:1;"/>
<stop offset="0.742188" style="stop-color:rgb(21.937561%,27.44751%,36.395264%);stop-opacity:1;"/>
<stop offset="0.746094" style="stop-color:rgb(21.812439%,27.215576%,36.030579%);stop-opacity:1;"/>
<stop offset="0.75" style="stop-color:rgb(21.685791%,26.982117%,35.665894%);stop-opacity:1;"/>
<stop offset="0.753906" style="stop-color:rgb(21.560669%,26.750183%,35.301208%);stop-opacity:1;"/>
<stop offset="0.757812" style="stop-color:rgb(21.434021%,26.516724%,34.936523%);stop-opacity:1;"/>
<stop offset="0.761719" style="stop-color:rgb(21.308899%,26.283264%,34.571838%);stop-opacity:1;"/>
<stop offset="0.765625" style="stop-color:rgb(21.182251%,26.051331%,34.207153%);stop-opacity:1;"/>
<stop offset="0.769531" style="stop-color:rgb(21.057129%,25.817871%,33.842468%);stop-opacity:1;"/>
<stop offset="0.773438" style="stop-color:rgb(20.932007%,25.585938%,33.477783%);stop-opacity:1;"/>
<stop offset="0.777344" style="stop-color:rgb(20.805359%,25.352478%,33.111572%);stop-opacity:1;"/>
<stop offset="0.78125" style="stop-color:rgb(20.680237%,25.120544%,32.746887%);stop-opacity:1;"/>
<stop offset="0.785156" style="stop-color:rgb(20.553589%,24.887085%,32.382202%);stop-opacity:1;"/>
<stop offset="0.789062" style="stop-color:rgb(20.428467%,24.653625%,32.017517%);stop-opacity:1;"/>
<stop offset="0.792969" style="stop-color:rgb(20.301819%,24.421692%,31.652832%);stop-opacity:1;"/>
<stop offset="0.796875" style="stop-color:rgb(20.176697%,24.188232%,31.288147%);stop-opacity:1;"/>
<stop offset="0.800781" style="stop-color:rgb(20.051575%,23.956299%,30.923462%);stop-opacity:1;"/>
<stop offset="0.804688" style="stop-color:rgb(19.924927%,23.722839%,30.558777%);stop-opacity:1;"/>
<stop offset="0.808594" style="stop-color:rgb(19.799805%,23.490906%,30.194092%);stop-opacity:1;"/>
<stop offset="0.8125" style="stop-color:rgb(19.673157%,23.257446%,29.827881%);stop-opacity:1;"/>
<stop offset="0.816406" style="stop-color:rgb(19.548035%,23.023987%,29.463196%);stop-opacity:1;"/>
<stop offset="0.820312" style="stop-color:rgb(19.421387%,22.792053%,29.098511%);stop-opacity:1;"/>
<stop offset="0.824219" style="stop-color:rgb(19.296265%,22.558594%,28.733826%);stop-opacity:1;"/>
<stop offset="0.828125" style="stop-color:rgb(19.171143%,22.32666%,28.369141%);stop-opacity:1;"/>
<stop offset="0.832031" style="stop-color:rgb(19.044495%,22.093201%,28.004456%);stop-opacity:1;"/>
<stop offset="0.835938" style="stop-color:rgb(18.919373%,21.861267%,27.639771%);stop-opacity:1;"/>
<stop offset="0.839844" style="stop-color:rgb(18.792725%,21.627808%,27.275085%);stop-opacity:1;"/>
<stop offset="0.84375" style="stop-color:rgb(18.667603%,21.394348%,26.9104%);stop-opacity:1;"/>
<stop offset="0.847656" style="stop-color:rgb(18.540955%,21.162415%,26.545715%);stop-opacity:1;"/>
<stop offset="0.851562" style="stop-color:rgb(18.415833%,20.928955%,26.179504%);stop-opacity:1;"/>
<stop offset="0.855469" style="stop-color:rgb(18.289185%,20.697021%,25.814819%);stop-opacity:1;"/>
<stop offset="0.859375" style="stop-color:rgb(18.164062%,20.463562%,25.450134%);stop-opacity:1;"/>
<stop offset="0.863281" style="stop-color:rgb(18.03894%,20.230103%,25.085449%);stop-opacity:1;"/>
<stop offset="0.867188" style="stop-color:rgb(17.912292%,19.998169%,24.720764%);stop-opacity:1;"/>
<stop offset="0.871094" style="stop-color:rgb(17.78717%,19.764709%,24.356079%);stop-opacity:1;"/>
<stop offset="0.875" style="stop-color:rgb(17.660522%,19.532776%,23.991394%);stop-opacity:1;"/>
<stop offset="0.878906" style="stop-color:rgb(17.5354%,19.299316%,23.626709%);stop-opacity:1;"/>
<stop offset="0.882812" style="stop-color:rgb(17.408752%,19.067383%,23.262024%);stop-opacity:1;"/>
<stop offset="0.886719" style="stop-color:rgb(17.28363%,18.833923%,22.897339%);stop-opacity:1;"/>
<stop offset="0.890625" style="stop-color:rgb(17.158508%,18.600464%,22.531128%);stop-opacity:1;"/>
<stop offset="0.894531" style="stop-color:rgb(17.03186%,18.36853%,22.166443%);stop-opacity:1;"/>
<stop offset="0.898438" style="stop-color:rgb(16.906738%,18.135071%,21.801758%);stop-opacity:1;"/>
<stop offset="0.902344" style="stop-color:rgb(16.78009%,17.903137%,21.437073%);stop-opacity:1;"/>
<stop offset="0.90625" style="stop-color:rgb(16.654968%,17.669678%,21.072388%);stop-opacity:1;"/>
<stop offset="0.910156" style="stop-color:rgb(16.52832%,17.437744%,20.707703%);stop-opacity:1;"/>
<stop offset="0.914062" style="stop-color:rgb(16.403198%,17.204285%,20.343018%);stop-opacity:1;"/>
<stop offset="0.917969" style="stop-color:rgb(16.278076%,16.970825%,19.978333%);stop-opacity:1;"/>
<stop offset="0.921875" style="stop-color:rgb(16.151428%,16.738892%,19.613647%);stop-opacity:1;"/>
<stop offset="0.925781" style="stop-color:rgb(16.026306%,16.505432%,19.247437%);stop-opacity:1;"/>
<stop offset="0.929688" style="stop-color:rgb(15.899658%,16.273499%,18.882751%);stop-opacity:1;"/>
<stop offset="0.933594" style="stop-color:rgb(15.774536%,16.040039%,18.518066%);stop-opacity:1;"/>
<stop offset="0.9375" style="stop-color:rgb(15.647888%,15.808105%,18.153381%);stop-opacity:1;"/>
<stop offset="0.941406" style="stop-color:rgb(15.522766%,15.574646%,17.788696%);stop-opacity:1;"/>
<stop offset="0.945312" style="stop-color:rgb(15.397644%,15.341187%,17.424011%);stop-opacity:1;"/>
<stop offset="0.949219" style="stop-color:rgb(15.270996%,15.109253%,17.059326%);stop-opacity:1;"/>
<stop offset="0.953125" style="stop-color:rgb(15.145874%,14.875793%,16.694641%);stop-opacity:1;"/>
<stop offset="0.957031" style="stop-color:rgb(15.019226%,14.64386%,16.329956%);stop-opacity:1;"/>
<stop offset="0.960938" style="stop-color:rgb(14.894104%,14.4104%,15.965271%);stop-opacity:1;"/>
<stop offset="0.964844" style="stop-color:rgb(14.767456%,14.178467%,15.59906%);stop-opacity:1;"/>
<stop offset="0.96875" style="stop-color:rgb(14.642334%,13.945007%,15.234375%);stop-opacity:1;"/>
<stop offset="0.972656" style="stop-color:rgb(14.517212%,13.711548%,14.86969%);stop-opacity:1;"/>
<stop offset="0.976562" style="stop-color:rgb(14.390564%,13.479614%,14.505005%);stop-opacity:1;"/>
<stop offset="0.980469" style="stop-color:rgb(14.265442%,13.246155%,14.14032%);stop-opacity:1;"/>
<stop offset="0.984375" style="stop-color:rgb(14.138794%,13.014221%,13.775635%);stop-opacity:1;"/>
<stop offset="0.988281" style="stop-color:rgb(14.013672%,12.780762%,13.41095%);stop-opacity:1;"/>
<stop offset="0.992188" style="stop-color:rgb(13.887024%,12.547302%,13.046265%);stop-opacity:1;"/>
<stop offset="0.996094" style="stop-color:rgb(13.761902%,12.315369%,12.68158%);stop-opacity:1;"/>
<stop offset="1" style="stop-color:rgb(13.699341%,12.199402%,12.5%);stop-opacity:1;"/>
</radialGradient>
</defs>
<g id="surface1">
<g clip-path="url(#clip1)" clip-rule="nonzero">
<path style=" stroke:none;fill-rule:nonzero;fill:rgb(0%,38.038635%,54.119873%);fill-opacity:1;" d="M 124.554688 262.054688 L 131.546875 262.054688 L 131.546875 234.507812 L 142.367188 258.53125 C 143.640625 261.429688 145.390625 262.46875 148.816406 262.46875 C 152.246094 262.46875 153.925781 261.4375 155.203125 258.53125 L 166.023438 234.507812 L 166.023438 262.066406 L 173.015625 262.066406 L 173.015625 234.550781 C 173.015625 231.867188 171.9375 230.570312 169.71875 229.898438 C 164.410156 228.246094 160.847656 229.675781 159.238281 233.253906 L 148.617188 256.964844 L 138.332031 233.246094 C 136.789062 229.664062 133.160156 228.234375 127.851562 229.890625 C 125.632812 230.558594 124.554688 231.859375 124.554688 234.542969 Z M 178.824219 239.625 L 185.8125 239.625 L 185.8125 254.808594 C 185.746094 255.632812 186.074219 257.570312 189.90625 257.628906 C 191.859375 257.660156 204.980469 257.628906 205.105469 257.628906 L 205.105469 239.550781 L 212.105469 239.550781 C 212.136719 239.550781 212.097656 264.203125 212.101562 264.308594 C 212.136719 270.386719 204.542969 271.707031 201.046875 271.8125 L 178.976562 271.8125 L 178.976562 267.113281 L 201.085938 267.113281 C 205.582031 266.636719 205.050781 264.40625 205.050781 263.65625 L 205.050781 261.824219 L 190.195312 261.824219 C 183.285156 261.761719 178.882812 258.75 178.828125 255.285156 C 178.824219 254.972656 178.980469 239.773438 178.824219 239.625 Z M 178.824219 239.625 "/>
</g>
<path style=" stroke:none;fill-rule:nonzero;fill:rgb(89.408875%,55.688477%,0%);fill-opacity:1;" d="M 217.496094 262.054688 L 237.589844 262.054688 C 239.941406 262.054688 242.226562 261.5625 244.042969 260.714844 C 247.066406 259.328125 248.546875 257.449219 248.546875 254.988281 L 248.546875 249.886719 C 248.546875 247.875 246.867188 245.996094 243.574219 244.742188 C 241.824219 244.070312 239.675781 243.714844 237.59375 243.714844 L 229.125 243.714844 C 226.300781 243.714844 224.957031 242.863281 224.621094 240.984375 C 224.554688 240.761719 224.554688 240.570312 224.554688 240.359375 L 224.554688 237.183594 C 224.554688 237.003906 224.554688 236.824219 224.621094 236.601562 C 224.957031 235.167969 225.695312 234.765625 228.183594 234.53125 C 228.386719 234.53125 228.652344 234.484375 228.855469 234.484375 L 248.816406 234.484375 L 248.816406 229.835938 L 229.191406 229.835938 C 226.367188 229.835938 224.890625 230.011719 223.546875 230.414062 C 219.375 231.714844 217.558594 233.78125 217.558594 237.359375 L 217.558594 241.433594 C 217.558594 244.566406 221.121094 247.25 227.101562 247.875 C 227.773438 247.917969 228.445312 247.964844 229.117188 247.964844 L 236.375 247.964844 C 236.644531 247.964844 236.914062 247.964844 237.117188 248.007812 C 239.332031 248.1875 240.273438 248.589844 240.945312 249.394531 C 241.359375 249.808594 241.484375 250.203125 241.484375 250.636719 L 241.484375 254.707031 C 241.484375 255.199219 241.148438 255.828125 240.476562 256.363281 C 239.871094 256.902344 238.863281 257.257812 237.519531 257.347656 C 237.25 257.347656 237.050781 257.390625 236.78125 257.390625 L 217.492188 257.390625 L 217.492188 262.042969 Z M 292.144531 253.957031 C 292.144531 258.746094 295.707031 261.429688 302.898438 261.96875 C 303.570312 262.019531 304.242188 262.046875 304.914062 262.054688 L 323.128906 262.054688 L 323.128906 257.402344 L 304.78125 257.402344 C 300.679688 257.402344 299.132812 256.375 299.132812 253.914062 L 299.132812 229.84375 L 292.144531 229.84375 Z M 253.003906 254.199219 L 253.003906 237.613281 C 253.003906 233.402344 255.96875 230.84375 261.828125 230.039062 C 262.453125 229.949219 263.082031 229.902344 263.710938 229.902344 L 276.980469 229.902344 C 277.632812 229.902344 278.285156 229.949219 278.933594 230.039062 C 284.792969 230.84375 287.753906 233.398438 287.753906 237.613281 L 287.753906 254.199219 C 287.753906 257.621094 286.496094 259.449219 283.597656 260.640625 L 290.480469 266.847656 L 282.367188 266.847656 L 276.796875 261.828125 L 271.1875 262.183594 L 263.710938 262.183594 C 262.433594 262.183594 261.085938 262.003906 259.605469 261.597656 C 255.148438 260.386719 253.003906 258.058594 253.003906 254.199219 Z M 260.550781 253.785156 C 260.550781 254.011719 260.617188 254.234375 260.683594 254.503906 C 261.097656 256.433594 262.90625 257.507812 265.65625 257.507812 L 272.007812 257.507812 L 266.175781 252.25 L 274.289062 252.25 L 279.363281 256.835938 C 280.300781 256.335938 280.917969 255.574219 281.125 254.59375 C 281.195312 254.371094 281.195312 254.148438 281.195312 253.921875 L 281.195312 238.019531 C 281.195312 237.839844 281.195312 237.605469 281.125 237.390625 C 280.710938 235.597656 278.902344 234.566406 276.210938 234.566406 L 265.675781 234.566406 C 262.566406 234.566406 260.558594 235.910156 260.558594 238.019531 L 260.558594 253.800781 Z M 260.550781 253.785156 "/>
<path style=" stroke:none;fill-rule:nonzero;fill:rgb(0%,38.038635%,54.119873%);fill-opacity:1;" d="M 329.273438 222.125 C 324.976562 222.007812 321.695312 222.40625 318.890625 223.589844 C 318.089844 223.925781 316.820312 223.933594 316.691406 224.929688 C 317.128906 225.390625 317.199219 226.074219 317.542969 226.636719 C 318.214844 227.722656 319.347656 229.171875 320.355469 229.929688 C 321.457031 230.761719 322.59375 231.652344 323.777344 232.371094 C 325.878906 233.652344 328.226562 234.382812 330.25 235.664062 C 331.445312 236.421875 332.628906 237.371094 333.792969 238.226562 C 334.367188 238.648438 334.757812 239.304688 335.503906 239.570312 L 335.503906 239.445312 C 335.109375 238.945312 335.007812 238.261719 334.648438 237.738281 L 333.0625 236.152344 C 331.507812 234.085938 329.535156 232.289062 327.441406 230.785156 C 325.769531 229.585938 322.027344 227.96875 321.332031 226.027344 L 321.210938 225.90625 C 322.394531 225.769531 323.78125 225.34375 324.878906 225.050781 C 326.714844 224.5625 328.355469 224.6875 330.253906 224.199219 L 332.820312 223.464844 L 332.820312 222.976562 C 331.859375 221.996094 331.175781 220.695312 330.132812 219.808594 C 327.394531 217.480469 324.410156 215.15625 321.335938 213.21875 C 319.632812 212.140625 317.523438 211.445312 315.714844 210.535156 C 315.109375 210.226562 314.039062 210.066406 313.640625 209.558594 C 312.691406 208.347656 312.171875 206.816406 311.441406 205.417969 C 309.90625 202.472656 308.402344 199.25 307.042969 196.148438 C 306.117188 194.035156 305.507812 191.945312 304.355469 190.050781 C 298.808594 180.941406 292.835938 175.445312 283.585938 170.042969 C 281.621094 168.894531 279.25 168.441406 276.746094 167.847656 L 272.714844 167.605469 C 271.894531 167.261719 271.039062 166.257812 270.269531 165.773438 C 267.203125 163.839844 259.34375 159.636719 257.074219 165.152344 C 255.644531 168.640625 259.214844 172.046875 260.496094 173.8125 C 261.394531 175.054688 262.542969 176.445312 263.183594 177.839844 C 263.605469 178.757812 263.679688 179.675781 264.039062 180.644531 C 264.925781 183.027344 265.699219 185.636719 266.847656 187.84375 C 267.429688 188.960938 268.070312 190.136719 268.804688 191.136719 C 269.253906 191.75 270.023438 192.019531 270.148438 192.96875 C 269.390625 194.023438 269.347656 195.65625 268.925781 196.992188 C 267.015625 203.003906 267.734375 210.476562 270.511719 214.925781 C 271.363281 216.292969 273.371094 219.222656 276.132812 218.097656 C 278.546875 217.117188 277.996094 214.074219 278.699219 211.390625 C 278.851562 210.777344 278.757812 210.335938 279.066406 209.925781 L 279.066406 210.046875 L 281.265625 214.4375 C 282.890625 217.054688 285.78125 219.792969 288.226562 221.636719 C 289.496094 222.59375 290.507812 224.25 292.136719 224.808594 L 292.136719 224.6875 L 292.015625 224.6875 C 291.695312 224.191406 291.199219 223.988281 290.792969 223.589844 C 289.835938 222.65625 288.773438 221.492188 287.980469 220.417969 C 285.753906 217.402344 283.789062 214.097656 281.996094 210.660156 C 281.140625 209.019531 280.394531 207.207031 279.675781 205.535156 C 279.398438 204.890625 279.402344 203.917969 278.820312 203.585938 C 278.03125 204.808594 276.867188 205.796875 276.253906 207.246094 C 275.277344 209.554688 275.152344 212.371094 274.789062 215.296875 C 274.574219 215.371094 274.671875 215.320312 274.546875 215.417969 C 272.84375 215.007812 272.246094 213.257812 271.613281 211.757812 C 270.015625 207.960938 269.71875 201.851562 271.125 197.484375 C 271.488281 196.355469 273.132812 192.796875 272.46875 191.753906 C 272.148438 190.710938 271.101562 190.097656 270.511719 189.3125 C 269.789062 188.328125 269.0625 187.03125 268.558594 185.894531 C 267.25 182.9375 266.636719 179.617188 265.261719 176.625 C 264.601562 175.195312 263.488281 173.75 262.574219 172.488281 C 261.558594 171.082031 260.425781 170.042969 259.640625 168.351562 C 259.363281 167.746094 258.984375 166.777344 259.398438 166.152344 C 259.484375 165.753906 259.730469 165.507812 260.128906 165.421875 C 260.839844 164.875 262.8125 165.601562 263.550781 165.910156 C 265.507812 166.722656 267.144531 167.496094 268.804688 168.59375 C 269.601562 169.109375 270.40625 170.140625 271.371094 170.425781 L 272.46875 170.425781 C 274.1875 170.820312 276.113281 170.550781 277.71875 171.035156 C 280.5625 171.898438 283.105469 173.238281 285.417969 174.695312 C 292.460938 179.132812 298.214844 185.453125 302.152344 193.003906 C 302.789062 194.214844 303.0625 195.375 303.621094 196.664062 C 304.746094 199.25 306.164062 201.929688 307.285156 204.46875 C 308.402344 207.003906 309.492188 209.558594 311.074219 211.667969 C 311.902344 212.773438 315.113281 213.367188 316.570312 213.984375 C 317.59375 214.414062 319.265625 214.863281 320.234375 215.445312 C 322.085938 216.5625 323.875 217.886719 325.613281 219.109375 C 326.480469 219.71875 329.144531 221.054688 329.277344 222.15625 Z M 329.273438 222.125 "/>
<path style=" stroke:none;fill-rule:evenodd;fill:rgb(0%,38.038635%,54.119873%);fill-opacity:1;" d="M 274.671875 175.648438 C 273.773438 175.632812 273.140625 175.746094 272.472656 175.890625 L 272.472656 176.015625 L 272.59375 176.015625 C 273.019531 176.890625 273.773438 177.457031 274.300781 178.210938 L 275.523438 180.773438 L 275.648438 180.648438 C 276.402344 180.117188 276.75 179.265625 276.746094 177.964844 C 276.441406 177.648438 276.398438 177.246094 276.132812 176.867188 C 275.785156 176.359375 275.097656 176.074219 274.667969 175.644531 Z M 274.671875 175.648438 "/>
<path style=" stroke:none;fill-rule:evenodd;fill:rgb(89.408875%,55.688477%,0%);fill-opacity:1;" d="M 326.414062 257.269531 C 326.414062 260.34375 328.84375 262.414062 331.566406 262.414062 C 334.285156 262.414062 336.714844 260.34375 336.714844 257.269531 C 336.714844 254.199219 334.285156 252.128906 331.566406 252.128906 C 328.84375 252.128906 326.414062 254.199219 326.414062 257.269531 Z M 335.5625 257.269531 C 335.5625 259.601562 333.777344 261.34375 331.5625 261.34375 C 329.324219 261.34375 327.5625 259.601562 327.5625 257.269531 C 327.5625 254.9375 329.324219 253.199219 331.5625 253.199219 C 333.773438 253.199219 335.5625 254.9375 335.5625 257.269531 Z M 332.949219 260.207031 L 334.105469 260.207031 L 332.414062 257.628906 C 333.320312 257.53125 334.007812 257.09375 334.007812 256.023438 C 334.007812 254.828125 333.25 254.335938 331.796875 254.335938 L 329.503906 254.335938 L 329.503906 260.207031 L 330.492188 260.207031 L 330.492188 257.671875 L 331.410156 257.671875 Z M 330.492188 256.84375 L 330.492188 255.160156 L 331.632812 255.160156 C 332.222656 255.160156 332.9375 255.269531 332.9375 255.953125 C 332.9375 256.777344 332.292969 256.847656 331.546875 256.847656 L 330.492188 256.847656 Z M 330.492188 256.84375 "/>
<g clip-path="url(#clip2)" clip-rule="nonzero">
<g clip-path="url(#clip3)" clip-rule="nonzero">
<path style=" stroke:none;fill-rule:nonzero;fill:url(#radial0);" d="M 37.5 103.234375 L 37.5 214.644531 L 251.230469 214.644531 L 251.230469 103.234375 Z M 37.5 103.234375 "/>
</g>
</g>
<path style=" stroke:none;fill-rule:nonzero;fill:rgb(38.038635%,50.588989%,71.369934%);fill-opacity:1;" d="M 247.058594 158.9375 C 247.058594 159.785156 247.015625 160.625 246.933594 161.46875 C 246.851562 162.3125 246.726562 163.152344 246.5625 163.992188 C 246.398438 164.832031 246.191406 165.671875 245.945312 166.507812 C 245.699219 167.339844 245.414062 168.171875 245.085938 169 C 244.757812 169.828125 244.390625 170.652344 243.980469 171.46875 C 243.570312 172.289062 243.125 173.101562 242.636719 173.910156 C 242.148438 174.714844 241.621094 175.515625 241.054688 176.3125 C 240.488281 177.105469 239.882812 177.894531 239.242188 178.671875 C 238.597656 179.453125 237.917969 180.222656 237.199219 180.988281 C 236.480469 181.75 235.722656 182.503906 234.933594 183.25 C 234.140625 183.992188 233.3125 184.726562 232.449219 185.449219 C 231.582031 186.175781 230.683594 186.886719 229.75 187.589844 C 228.816406 188.289062 227.851562 188.980469 226.847656 189.660156 C 225.847656 190.335938 224.8125 191 223.746094 191.652344 C 222.683594 192.304688 221.585938 192.945312 220.457031 193.570312 C 219.328125 194.195312 218.167969 194.804688 216.980469 195.402344 C 215.792969 196 214.574219 196.582031 213.328125 197.148438 C 212.085938 197.714844 210.8125 198.265625 209.511719 198.800781 C 208.214844 199.335938 206.890625 199.855469 205.539062 200.359375 C 204.191406 200.863281 202.816406 201.347656 201.417969 201.816406 C 200.019531 202.285156 198.601562 202.738281 197.160156 203.171875 C 195.71875 203.605469 194.257812 204.019531 192.773438 204.417969 C 191.292969 204.816406 189.792969 205.195312 188.273438 205.554688 C 186.753906 205.917969 185.21875 206.257812 183.664062 206.582031 C 182.113281 206.90625 180.542969 207.207031 178.960938 207.492188 C 177.378906 207.777344 175.785156 208.042969 174.175781 208.285156 C 172.566406 208.53125 170.949219 208.757812 169.316406 208.960938 C 167.6875 209.167969 166.046875 209.351562 164.398438 209.515625 C 162.753906 209.679688 161.097656 209.824219 159.433594 209.949219 C 157.773438 210.074219 156.105469 210.175781 154.433594 210.257812 C 152.757812 210.339844 151.082031 210.402344 149.40625 210.445312 C 147.726562 210.488281 146.046875 210.507812 144.367188 210.507812 C 142.6875 210.507812 141.007812 210.488281 139.328125 210.445312 C 137.648438 210.402344 135.972656 210.339844 134.300781 210.257812 C 132.628906 210.175781 130.960938 210.074219 129.296875 209.949219 C 127.636719 209.824219 125.980469 209.679688 124.332031 209.515625 C 122.683594 209.351562 121.042969 209.167969 119.414062 208.960938 C 117.785156 208.757812 116.164062 208.53125 114.554688 208.285156 C 112.949219 208.042969 111.351562 207.777344 109.769531 207.492188 C 108.1875 207.207031 106.621094 206.90625 105.066406 206.582031 C 103.515625 206.257812 101.980469 205.917969 100.460938 205.554688 C 98.941406 205.195312 97.441406 204.816406 95.957031 204.417969 C 94.476562 204.019531 93.011719 203.605469 91.570312 203.171875 C 90.128906 202.738281 88.710938 202.285156 87.3125 201.816406 C 85.917969 201.347656 84.542969 200.863281 83.191406 200.359375 C 81.84375 199.855469 80.519531 199.335938 79.21875 198.800781 C 77.921875 198.265625 76.648438 197.714844 75.402344 197.148438 C 74.15625 196.582031 72.941406 196 71.753906 195.402344 C 70.5625 194.804688 69.40625 194.195312 68.277344 193.570312 C 67.148438 192.945312 66.050781 192.304688 64.984375 191.652344 C 63.917969 191 62.882812 190.335938 61.882812 189.660156 C 60.882812 188.980469 59.914062 188.289062 58.980469 187.589844 C 58.046875 186.886719 57.148438 186.175781 56.285156 185.449219 C 55.421875 184.726562 54.59375 183.992188 53.800781 183.25 C 53.007812 182.503906 52.253906 181.75 51.535156 180.988281 C 50.816406 180.222656 50.132812 179.453125 49.492188 178.671875 C 48.847656 177.894531 48.242188 177.105469 47.675781 176.3125 C 47.109375 175.515625 46.585938 174.714844 46.097656 173.910156 C 45.609375 173.101562 45.160156 172.289062 44.753906 171.46875 C 44.34375 170.652344 43.976562 169.828125 43.648438 169 C 43.320312 168.171875 43.03125 167.339844 42.785156 166.507812 C 42.539062 165.671875 42.332031 164.832031 42.167969 163.992188 C 42.003906 163.152344 41.878906 162.3125 41.796875 161.46875 C 41.714844 160.625 41.675781 159.785156 41.675781 158.9375 C 41.675781 158.09375 41.714844 157.253906 41.796875 156.410156 C 41.878906 155.566406 42.003906 154.726562 42.167969 153.886719 C 42.332031 153.046875 42.539062 152.207031 42.785156 151.371094 C 43.03125 150.539062 43.320312 149.707031 43.648438 148.878906 C 43.976562 148.050781 44.34375 147.226562 44.753906 146.410156 C 45.160156 145.589844 45.609375 144.777344 46.097656 143.96875 C 46.585938 143.164062 47.109375 142.359375 47.675781 141.566406 C 48.242188 140.773438 48.847656 139.984375 49.492188 139.207031 C 50.132812 138.425781 50.816406 137.652344 51.535156 136.890625 C 52.253906 136.128906 53.007812 135.375 53.800781 134.628906 C 54.59375 133.886719 55.421875 133.152344 56.285156 132.429688 C 57.148438 131.703125 58.046875 130.992188 58.980469 130.289062 C 59.914062 129.589844 60.882812 128.898438 61.882812 128.21875 C 62.882812 127.542969 63.917969 126.878906 64.984375 126.226562 C 66.050781 125.574219 67.148438 124.933594 68.277344 124.308594 C 69.40625 123.683594 70.5625 123.070312 71.753906 122.476562 C 72.941406 121.878906 74.15625 121.296875 75.402344 120.730469 C 76.648438 120.164062 77.921875 119.613281 79.21875 119.078125 C 80.519531 118.542969 81.84375 118.023438 83.191406 117.519531 C 84.542969 117.015625 85.917969 116.53125 87.3125 116.0625 C 88.710938 115.59375 90.128906 115.140625 91.570312 114.707031 C 93.011719 114.273438 94.476562 113.859375 95.957031 113.460938 C 97.441406 113.0625 98.941406 112.683594 100.460938 112.324219 C 101.980469 111.960938 103.515625 111.621094 105.066406 111.296875 C 106.621094 110.972656 108.1875 110.671875 109.769531 110.386719 C 111.351562 110.101562 112.949219 109.835938 114.554688 109.59375 C 116.164062 109.347656 117.785156 109.121094 119.414062 108.917969 C 121.042969 108.710938 122.683594 108.527344 124.332031 108.363281 C 125.980469 108.199219 127.636719 108.054688 129.296875 107.929688 C 130.960938 107.804688 132.628906 107.703125 134.300781 107.621094 C 135.972656 107.539062 137.648438 107.476562 139.328125 107.433594 C 141.007812 107.390625 142.6875 107.371094 144.367188 107.371094 C 146.046875 107.371094 147.726562 107.390625 149.40625 107.433594 C 151.082031 107.476562 152.757812 107.539062 154.433594 107.621094 C 156.105469 107.703125 157.773438 107.804688 159.433594 107.929688 C 161.097656 108.054688 162.753906 108.199219 164.398438 108.363281 C 166.046875 108.527344 167.6875 108.710938 169.316406 108.917969 C 170.949219 109.121094 172.566406 109.347656 174.175781 109.59375 C 175.785156 109.835938 177.378906 110.101562 178.960938 110.386719 C 180.542969 110.671875 182.113281 110.972656 183.664062 111.296875 C 185.21875 111.621094 186.753906 111.960938 188.273438 112.324219 C 189.792969 112.683594 191.292969 113.0625 192.773438 113.460938 C 194.257812 113.859375 195.71875 114.273438 197.160156 114.707031 C 198.601562 115.140625 200.019531 115.59375 201.417969 116.0625 C 202.816406 116.53125 204.191406 117.015625 205.539062 117.519531 C 206.890625 118.023438 208.214844 118.542969 209.511719 119.078125 C 210.8125 119.613281 212.085938 120.164062 213.328125 120.730469 C 214.574219 121.296875 215.792969 121.878906 216.980469 122.476562 C 218.167969 123.070312 219.328125 123.683594 220.457031 124.308594 C 221.585938 124.933594 222.683594 125.574219 223.746094 126.226562 C 224.8125 126.878906 225.847656 127.542969 226.847656 128.21875 C 227.851562 128.898438 228.816406 129.589844 229.75 130.289062 C 230.683594 130.992188 231.582031 131.703125 232.449219 132.429688 C 233.3125 133.152344 234.140625 133.886719 234.933594 134.628906 C 235.722656 135.375 236.480469 136.128906 237.199219 136.890625 C 237.917969 137.652344 238.597656 138.425781 239.242188 139.207031 C 239.882812 139.984375 240.488281 140.773438 241.054688 141.566406 C 241.621094 142.359375 242.148438 143.164062 242.636719 143.96875 C 243.125 144.777344 243.570312 145.589844 243.980469 146.410156 C 244.390625 147.226562 244.757812 148.050781 245.085938 148.878906 C 245.414062 149.707031 245.699219 150.539062 245.945312 151.371094 C 246.191406 152.207031 246.398438 153.046875 246.5625 153.886719 C 246.726562 154.726562 246.851562 155.566406 246.933594 156.410156 C 247.015625 157.253906 247.058594 158.09375 247.058594 158.9375 Z M 247.058594 158.9375 "/>
<path style=" stroke:none;fill-rule:nonzero;fill:rgb(100%,100%,100%);fill-opacity:1;" d="M 165.15625 175.660156 L 170.246094 149.667969 C 171.417969 143.792969 170.414062 139.40625 167.410156 136.671875 C 164.488281 134.023438 159.476562 132.699219 152.128906 132.699219 L 143.28125 132.699219 L 145.785156 119.789062 C 145.867188 119.289062 145.785156 118.792969 145.453125 118.378906 C 145.117188 117.964844 144.699219 117.800781 144.199219 117.800781 L 132.011719 117.800781 C 131.175781 117.800781 130.507812 118.378906 130.339844 119.125 L 124.914062 146.6875 C 124.414062 143.542969 123.242188 140.894531 121.238281 138.742188 C 117.648438 134.6875 112.054688 132.617188 104.457031 132.617188 L 80.996094 132.617188 C 80.164062 132.617188 79.496094 133.195312 79.328125 133.941406 L 68.390625 189.898438 C 68.308594 190.394531 68.390625 190.890625 68.726562 191.304688 C 69.058594 191.71875 69.476562 191.882812 69.976562 191.882812 L 82.25 191.882812 C 83.085938 191.882812 83.753906 191.304688 83.921875 190.558594 L 86.589844 177.066406 L 95.691406 177.066406 C 100.449219 177.066406 104.542969 176.570312 107.632812 175.578125 C 110.886719 174.5 113.808594 172.761719 116.398438 170.363281 C 118.484375 168.457031 120.238281 166.304688 121.574219 163.988281 L 119.402344 175.164062 C 119.320312 175.660156 119.402344 176.15625 119.738281 176.570312 C 120.070312 176.984375 120.488281 177.148438 120.988281 177.148438 L 133.179688 177.148438 C 134.011719 177.148438 134.679688 176.570312 134.847656 175.824219 L 140.859375 145.199219 L 149.207031 145.199219 C 152.796875 145.199219 153.800781 145.859375 154.132812 146.191406 C 154.386719 146.441406 154.886719 147.433594 154.300781 150.496094 L 149.460938 175.246094 C 149.375 175.742188 149.460938 176.238281 149.792969 176.652344 C 150.125 177.066406 150.542969 177.230469 151.046875 177.230469 L 163.570312 177.230469 C 164.320312 176.984375 164.988281 176.40625 165.15625 175.660156 Z M 108.714844 154.136719 C 107.964844 158.027344 106.546875 160.84375 104.457031 162.414062 C 102.371094 163.988281 98.949219 164.816406 94.441406 164.816406 L 89.011719 164.816406 L 92.9375 144.785156 L 99.949219 144.785156 C 105.125 144.785156 107.214844 145.859375 108.046875 146.773438 C 109.132812 148.097656 109.382812 150.660156 108.714844 154.136719 Z M 108.714844 154.136719 "/>
<path style=" stroke:none;fill-rule:nonzero;fill:rgb(100%,100%,100%);fill-opacity:1;" d="M 217.253906 138.742188 C 213.664062 134.6875 208.070312 132.617188 200.472656 132.617188 L 176.84375 132.617188 C 176.007812 132.617188 175.339844 133.195312 175.171875 133.941406 L 164.238281 189.8125 C 164.152344 190.308594 164.238281 190.808594 164.570312 191.222656 C 164.90625 191.636719 165.320312 191.800781 165.824219 191.800781 L 178.097656 191.800781 C 178.929688 191.800781 179.597656 191.222656 179.765625 190.476562 L 182.4375 176.984375 L 191.539062 176.984375 C 196.296875 176.984375 200.386719 176.488281 203.476562 175.492188 C 206.734375 174.417969 209.65625 172.679688 212.242188 170.277344 C 214.414062 168.292969 216.25 166.058594 217.585938 163.65625 C 218.921875 161.257812 219.925781 158.609375 220.507812 155.710938 C 221.925781 148.511719 220.84375 142.882812 217.253906 138.742188 Z M 204.476562 154.136719 C 203.726562 158.027344 202.308594 160.84375 200.21875 162.414062 C 198.132812 163.988281 194.710938 164.816406 190.203125 164.816406 L 184.773438 164.816406 L 188.699219 144.785156 L 195.710938 144.785156 C 200.886719 144.785156 202.976562 145.859375 203.808594 146.773438 C 204.980469 148.097656 205.230469 150.660156 204.476562 154.136719 Z M 204.476562 154.136719 "/>
<path style=" stroke:none;fill-rule:nonzero;fill:rgb(0%,0%,1.568604%);fill-opacity:1;" d="M 99.949219 143.128906 C 104.625 143.128906 107.714844 143.957031 109.300781 145.695312 C 110.886719 147.433594 111.222656 150.332031 110.386719 154.46875 C 109.550781 158.773438 107.882812 161.917969 105.460938 163.738281 C 103.039062 165.5625 99.367188 166.472656 94.441406 166.472656 L 87.007812 166.472656 L 91.601562 143.128906 Z M 70.0625 190.144531 L 82.332031 190.144531 L 85.253906 175.328125 L 95.777344 175.328125 C 100.449219 175.328125 104.207031 174.832031 107.214844 173.839844 C 110.21875 172.84375 112.890625 171.273438 115.394531 168.953125 C 117.484375 167.050781 119.152344 164.980469 120.40625 162.746094 C 121.65625 160.511719 122.574219 158.027344 123.078125 155.296875 C 124.414062 148.675781 123.410156 143.542969 120.15625 139.820312 C 116.898438 136.09375 111.722656 134.273438 104.625 134.273438 L 80.996094 134.273438 Z M 70.0625 190.144531 "/>
<path style=" stroke:none;fill-rule:nonzero;fill:rgb(0%,0%,1.568604%);fill-opacity:1;" d="M 132.09375 119.457031 L 144.28125 119.457031 L 141.359375 134.273438 L 152.214844 134.273438 C 159.058594 134.273438 163.734375 135.433594 166.324219 137.832031 C 168.910156 140.234375 169.664062 144.039062 168.660156 149.335938 L 163.570312 175.328125 L 151.210938 175.328125 L 156.054688 150.578125 C 156.640625 147.765625 156.386719 145.859375 155.46875 144.867188 C 154.550781 143.875 152.464844 143.296875 149.375 143.296875 L 139.605469 143.296875 L 133.34375 175.328125 L 121.15625 175.328125 Z M 132.09375 119.457031 "/>
<path style=" stroke:none;fill-rule:nonzero;fill:rgb(0%,0%,1.568604%);fill-opacity:1;" d="M 195.710938 143.128906 C 200.386719 143.128906 203.476562 143.957031 205.0625 145.695312 C 206.648438 147.433594 206.984375 150.332031 206.148438 154.46875 C 205.3125 158.773438 203.644531 161.917969 201.222656 163.738281 C 198.800781 165.5625 195.128906 166.472656 190.203125 166.472656 L 182.769531 166.472656 L 187.363281 143.128906 Z M 165.824219 190.144531 L 178.097656 190.144531 L 181.019531 175.328125 L 191.539062 175.328125 C 196.214844 175.328125 199.96875 174.832031 202.976562 173.839844 C 205.980469 172.84375 208.652344 171.273438 211.15625 168.953125 C 213.246094 167.050781 214.914062 164.980469 216.167969 162.746094 C 217.417969 160.511719 218.335938 158.027344 218.839844 155.296875 C 220.175781 148.675781 219.171875 143.542969 215.917969 139.820312 C 212.660156 136.09375 207.484375 134.273438 200.386719 134.273438 L 176.761719 134.273438 Z M 165.824219 190.144531 "/>
</g>
</svg>
