<?xml version="1.0" encoding="UTF-8"?>
<svg xmlns="http://www.w3.org/2000/svg" xmlns:xlink="http://www.w3.org/1999/xlink" width="375pt" height="374.999991pt" viewBox="0 0 375 374.999991" version="1.2">
<defs>
<clipPath id="clip1">
  <path d="M 37.5 37.5 L 337.5 37.5 L 337.5 337.5 L 37.5 337.5 Z M 37.5 37.5 "/>
</clipPath>
</defs>
<g id="surface1">
<g clip-path="url(#clip1)" clip-rule="nonzero">
<path style=" stroke:none;fill-rule:evenodd;fill:rgb(94.119263%,38.42926%,57.249451%);fill-opacity:1;" d="M 187.441406 37.742188 C 270.320312 37.742188 337.5 104.921875 337.5 187.800781 C 337.5 270.671875 270.320312 337.859375 187.441406 337.859375 C 104.566406 337.859375 37.378906 270.679688 37.378906 187.800781 C 37.386719 104.921875 104.566406 37.742188 187.441406 37.742188 Z M 187.441406 37.742188 "/>
</g>
<path style=" stroke:none;fill-rule:nonzero;fill:rgb(100%,100%,100%);fill-opacity:1;" d="M 281.566406 101.964844 C 274.769531 75.3125 230.582031 66.550781 188.761719 81.410156 C 163.875 90.25 136.929688 104.132812 117.550781 122.25 C 94.515625 143.800781 90.847656 162.550781 92.355469 170.386719 C 97.695312 198.035156 135.582031 216.109375 151.152344 229.523438 L 151.152344 229.605469 C 146.558594 231.867188 112.949219 248.875 105.085938 266.265625 C 96.785156 284.613281 106.410156 297.777344 112.777344 299.550781 C 132.515625 305.042969 152.761719 295.167969 163.648438 278.9375 C 174.152344 263.265625 173.28125 243.042969 168.71875 232.972656 C 175.011719 231.3125 182.355469 230.566406 191.679688 231.65625 C 218.003906 234.734375 223.167969 251.167969 222.175781 258.046875 C 221.191406 264.929688 215.664062 268.710938 213.824219 269.851562 C 211.972656 270.996094 211.417969 271.394531 211.566406 272.238281 C 211.792969 273.46875 212.644531 273.425781 214.222656 273.160156 C 216.386719 272.792969 228.042969 267.566406 228.546875 254.867188 C 229.175781 238.75 213.734375 220.71875 186.378906 221.183594 C 175.117188 221.378906 168.035156 222.449219 162.914062 224.355469 C 162.539062 223.929688 162.148438 223.5 161.753906 223.070312 C 144.847656 205.027344 113.582031 192.265625 114.90625 168.011719 C 115.386719 159.191406 118.453125 135.972656 174.972656 107.808594 C 221.273438 84.734375 258.34375 91.085938 264.75 105.152344 C 273.898438 125.257812 244.9375 162.621094 196.851562 168.011719 C 178.53125 170.0625 168.882812 162.964844 166.484375 160.320312 C 163.957031 157.539062 163.582031 157.410156 162.644531 157.9375 C 161.109375 158.785156 162.078125 161.246094 162.644531 162.710938 C 164.078125 166.449219 169.972656 173.070312 180.011719 176.371094 C 188.847656 179.273438 210.355469 180.859375 236.371094 170.800781 C 265.5 159.523438 288.25 128.167969 281.566406 101.964844 Z M 157.621094 237.785156 C 159.800781 245.859375 159.558594 253.394531 157.3125 260.214844 C 157.0625 260.972656 156.785156 261.71875 156.484375 262.460938 C 156.183594 263.199219 155.859375 263.9375 155.515625 264.65625 C 153.777344 268.265625 151.441406 271.644531 148.582031 274.761719 C 139.859375 284.273438 127.679688 287.867188 122.460938 284.839844 C 116.824219 281.566406 119.648438 268.160156 129.753906 257.46875 C 140.628906 245.972656 156.273438 238.582031 156.273438 238.582031 L 156.25 238.539062 C 156.703125 238.289062 157.160156 238.042969 157.621094 237.785156 Z M 157.621094 237.785156 "/>
</g>
</svg>
